<svg width="32" height="32" xmlns="http://www.w3.org/2000/svg">
 <g>
  <title>Layer 1</title>
  <path fill="#333333" d="m441.292999,205.233002l-33.420013,0c-11.213989,0 -20.304993,-9.091995 -20.304993,-20.307007l0,-8.882996c0,-69.156998 -56.061981,-125.218998 -125.222992,-125.218998l-86.723007,0c-69.157997,0 -125.220993,56.062 -125.220993,125.218998l0,159.911011c0,69.155975 56.062996,125.221985 125.220993,125.221985l160.753006,0c69.160004,0 125.222015,-56.065002 125.222015,-125.221985l0,-110.415009c0.000977,-11.214005 -9.091003,-20.306 -20.304016,-20.306zm-260.167999,-49.496002l74.875,0c13.552002,0 24.536011,10.986008 24.536011,24.537994c0,13.55101 -10.984009,24.537003 -24.536011,24.537003l-74.875,0c-13.550995,0 -24.537003,-10.985992 -24.537003,-24.537003c-0.000992,-13.550995 10.985001,-24.537994 24.537003,-24.537994zm149.811005,198.833008l-149.811005,0c-13.550995,0 -24.537003,-10.985992 -24.537003,-24.540985c0,-13.548004 10.986008,-24.534027 24.537003,-24.534027l149.811005,0c13.550995,0 24.537018,10.986023 24.537018,24.534027c-0.000031,13.554993 -10.98703,24.540985 -24.537018,24.540985z" id="blogger-icon"/>
 </g>
</svg>