<svg width="512" height="512" xmlns="http://www.w3.org/2000/svg">
 <g>
  <title>Layer 1</title>
  <path id="blogger-icon" d="m441.292999,205.233002l-33.420013,0c-11.213989,0 -20.304993,-9.091995 -20.304993,-20.307007l0,-8.882996c0,-69.156998 -56.061981,-125.218998 -125.222992,-125.218998l-86.723007,0c-69.157997,0 -125.220993,56.062 -125.220993,125.218998l0,159.911011c0,69.155975 56.062996,125.221985 125.220993,125.221985l160.753006,0c69.160004,0 125.221985,-56.065002 125.221985,-125.221985l0,-110.415009c0.001007,-11.214005 -9.090973,-20.306 -20.303986,-20.306zm-260.167999,-49.496002l74.875,0c13.552002,0 24.536011,10.986008 24.536011,24.537994c0,13.55101 -10.984009,24.537003 -24.536011,24.537003l-74.875,0c-13.550995,0 -24.537003,-10.985992 -24.537003,-24.537003c-0.000992,-13.550995 10.985001,-24.537994 24.537003,-24.537994zm149.811005,198.833008l-149.811005,0c-13.550995,0 -24.537003,-10.985992 -24.537003,-24.541016c0,-13.548004 10.986008,-24.533997 24.537003,-24.533997l149.811005,0c13.550995,0 24.536987,10.985992 24.536987,24.533997c0,13.555023 -10.987,24.541016 -24.536987,24.541016z" fill="#fc9e4d"/>
 </g>
</svg>